<svg width="24" height="24" viewBox="0 0 24 24" fill="none"
    xmlns="http://www.w3.org/2000/svg">
    <path fill-rule="evenodd" clip-rule="evenodd" d="M8.51187 1.62647C8.75071 1.54277 9.00198 1.50001 9.25506 1.5C9.33895 1.5 9.42224 1.51407 9.50146 1.54162C9.50196 1.54179 9.50311 1.54218 9.5049 1.54278C9.50935 1.54427 9.51778 1.54704 9.53007 1.55092C9.55466 1.55868 9.59468 1.57087 9.64924 1.58606C9.7584 1.61644 9.92547 1.65873 10.1434 1.7016C10.5796 1.78741 11.217 1.875 12.0001 1.875C12.7832 1.875 13.4205 1.78741 13.8568 1.7016C14.0747 1.65873 14.2418 1.61644 14.3509 1.58606C14.4055 1.57087 14.4455 1.55868 14.4701 1.55092C14.4824 1.54704 14.4908 1.54427 14.4953 1.54278C14.4975 1.54204 14.4987 1.54162 14.4989 1.54154L14.4985 1.54169L14.4977 1.54196L14.4969 1.54225C14.4967 1.54231 14.4966 1.54237 14.7451 2.25L14.7451 1.5C14.9982 1.50001 15.2495 1.54277 15.4883 1.62647C15.4884 1.62649 15.4884 1.62651 15.4885 1.62653C15.4886 1.62657 15.4887 1.62661 15.4888 1.62664L22.7478 4.1671C23.098 4.28964 23.3059 4.64975 23.237 5.01427L22.4575 9.13927C22.3964 9.4626 22.1317 9.70834 21.8047 9.74526L19.5136 10.004C19.5136 10.004 19.5135 10.004 19.5135 10.004C19.42 10.0146 19.3339 10.06 19.2724 10.1311C19.2107 10.2022 19.1781 10.294 19.181 10.3881L19.181 10.3899L19.4998 21.7289C19.5055 21.9314 19.429 22.1276 19.2878 22.2728C19.1466 22.4181 18.9526 22.5 18.7501 22.5H5.25008C5.04752 22.5 4.85356 22.4181 4.71235 22.2728C4.57114 22.1276 4.49469 21.9314 4.50038 21.7289L4.81913 10.3899L4.81918 10.3881C4.82205 10.294 4.78944 10.2022 4.72781 10.1311C4.66623 10.06 4.58017 10.0146 4.4867 10.004C4.48664 10.004 4.48659 10.004 4.48653 10.004L2.19545 9.74526C1.86848 9.70834 1.60376 9.4626 1.54266 9.13927L0.763127 5.01427C0.694242 4.64975 0.902195 4.28964 1.25234 4.1671L8.51139 1.62664C8.5115 1.62661 8.5116 1.62657 8.51171 1.62653C8.51176 1.62651 8.51182 1.62649 8.51187 1.62647ZM14.8404 3.00611C14.8144 3.01379 14.7853 3.02217 14.7531 3.03113C14.6097 3.07106 14.405 3.12252 14.1463 3.1734C13.6293 3.27509 12.8942 3.375 12.0001 3.375C11.106 3.375 10.3709 3.27509 9.85388 3.1734C9.59521 3.12252 9.3905 3.07106 9.24704 3.03113C9.21484 3.02217 9.18572 3.01379 9.15974 3.00611C9.10808 3.01276 9.05716 3.02481 9.00784 3.04211L2.35686 5.36976L2.91379 8.31685L4.6552 8.51351C5.12286 8.56643 5.5535 8.79329 5.86164 9.14904C6.16955 9.50453 6.33261 9.96275 6.31851 10.4328C6.3185 10.4332 6.31849 10.4335 6.31848 10.4338L6.02146 21H17.9787L17.6817 10.4338C17.6817 10.4335 17.6817 10.4332 17.6817 10.4328C17.6676 9.96275 17.8306 9.50453 18.1385 9.14904C18.4467 8.79329 18.8773 8.56643 19.345 8.51351L21.0864 8.31685L21.6433 5.36976L14.9923 3.04211C14.943 3.02481 14.8921 3.01276 14.8404 3.00611Z" fill="#164DA0"/>
    <path fill-rule="evenodd" clip-rule="evenodd" d="M8.18233 1.74367C8.58262 1.63716 8.99346 1.87531 9.09997 2.27559C9.27001 2.91466 9.64644 3.47962 10.1707 3.88265C10.695 4.28568 11.3378 4.50418 11.9991 4.50418C12.6604 4.50418 13.3032 4.28568 13.8274 3.88265C14.3517 3.47962 14.7282 2.91466 14.8982 2.27559C15.0047 1.87531 15.4156 1.63716 15.8159 1.74367C16.2161 1.85018 16.4543 2.26101 16.3478 2.6613C16.0927 3.61989 15.5281 4.46734 14.7416 5.07189C13.9552 5.67643 12.991 6.00418 11.9991 6.00418C11.0071 6.00418 10.043 5.67643 9.25656 5.07189C8.47012 4.46734 7.90547 3.61989 7.6504 2.6613C7.54389 2.26101 7.78205 1.85018 8.18233 1.74367Z" fill="#164DA0"/>
</svg>
